<svg version="1.1" id="Layer_1" xmlns="http://www.w3.org/2000/svg" xmlns:xlink="http://www.w3.org/1999/xlink" x="0px" y="0px"
	 width="100%" viewBox="0 0 180 180" enable-background="new 0 0 180 180" xml:space="preserve">
<path fill="#010000" opacity="1.000000" stroke="none" 
	d="
M120.000000,181.000000 
	C80.000000,181.000000 40.500004,181.000000 1.000005,181.000000 
	C1.000004,121.000008 1.000004,61.000011 1.000002,1.000013 
	C60.999989,1.000009 120.999977,1.000009 180.999969,1.000005 
	C180.999985,60.999985 180.999985,120.999969 181.000000,180.999969 
	C160.833328,181.000000 140.666672,181.000000 120.000000,181.000000 
M159.007950,50.552353 
	C138.654800,50.618507 118.301666,50.684658 97.441589,50.544735 
	C97.064941,51.020279 96.688293,51.495823 96.126778,52.894672 
	C96.126778,58.651417 96.126778,64.408165 96.126778,70.630867 
	C103.634048,70.630867 110.553696,70.630867 118.055298,70.630867 
	C118.055298,90.795921 118.055298,110.494843 118.055298,130.452271 
	C125.543167,130.452271 132.438995,130.452271 139.929199,130.452271 
	C139.929199,110.480278 139.929199,90.780373 139.929199,70.489868 
	C147.570923,70.489868 154.633194,70.489868 162.399780,70.489868 
	C161.923676,63.512325 161.491013,57.171394 160.494156,50.653133 
	C160.300919,50.692196 160.107697,50.731258 159.007950,50.552353 
M75.089905,50.461918 
	C71.124840,49.777412 70.930405,52.932972 70.273735,55.376278 
	C66.738388,68.530487 63.309795,81.713348 59.801918,94.875008 
	C58.875111,98.352417 57.797997,101.789757 56.789902,105.245499 
	C56.430973,105.198563 56.072048,105.151627 55.713120,105.104691 
	C50.708450,86.934372 45.703777,68.764053 40.753845,50.792465 
	C33.057819,50.792465 25.811836,50.792465 18.132999,50.792465 
	C26.984213,77.612152 35.693497,104.001778 44.481991,130.631424 
	C50.828529,130.631424 56.999416,130.316376 63.118004,130.746048 
	C66.971321,131.016678 68.370850,129.262283 69.375572,126.121284 
	C75.893921,105.743347 82.476524,85.385979 89.028534,65.018799 
	C90.530594,60.349617 91.995377,55.668438 93.645607,50.461834 
	C87.263458,50.461834 81.623299,50.461834 75.089905,50.461918 
z"/>
<path fill="#F8F8F8" opacity="1.000000" stroke="none" 
	d="
M75.536530,50.461876 
	C81.623299,50.461834 87.263458,50.461834 93.645607,50.461834 
	C91.995377,55.668438 90.530594,60.349617 89.028534,65.018799 
	C82.476524,85.385979 75.893921,105.743347 69.375572,126.121284 
	C68.370850,129.262283 66.971321,131.016678 63.118004,130.746048 
	C56.999416,130.316376 50.828529,130.631424 44.481991,130.631424 
	C35.693497,104.001778 26.984213,77.612152 18.132999,50.792465 
	C25.811836,50.792465 33.057819,50.792465 40.753845,50.792465 
	C45.703777,68.764053 50.708450,86.934372 55.713120,105.104691 
	C56.072048,105.151627 56.430973,105.198563 56.789902,105.245499 
	C57.797997,101.789757 58.875111,98.352417 59.801918,94.875008 
	C63.309795,81.713348 66.738388,68.530487 70.273735,55.376278 
	C70.930405,52.932972 71.124840,49.777412 75.536530,50.461876 
z"/>
<path fill="#E81B23" opacity="1.000000" stroke="none" 
	d="
M97.948524,50.750816 
	C118.301666,50.684658 138.654800,50.618507 159.562439,50.857716 
	C160.430740,51.052204 160.744553,50.941330 161.058350,50.830460 
	C161.491013,57.171394 161.923676,63.512325 162.399780,70.489868 
	C154.633194,70.489868 147.570923,70.489868 139.929199,70.489868 
	C139.929199,90.780373 139.929199,110.480278 139.929199,130.452271 
	C132.438995,130.452271 125.543167,130.452271 118.055298,130.452271 
	C118.055298,110.494843 118.055298,90.795921 118.055298,70.630867 
	C110.553696,70.630867 103.634048,70.630867 96.126778,70.630867 
	C96.126778,64.408165 96.126778,58.651417 96.445076,52.404373 
	C97.158424,51.526321 97.553474,51.138569 97.948524,50.750816 
z"/>
<path fill="#FD1E27" opacity="1.000000" stroke="none" 
	d="
M97.695053,50.647774 
	C97.553474,51.138569 97.158424,51.526321 96.537506,51.942719 
	C96.688293,51.495823 97.064941,51.020279 97.695053,50.647774 
z"/>
<path fill="#FD1E27" opacity="1.000000" stroke="none" 
	d="
M160.776245,50.741798 
	C160.744553,50.941330 160.430740,51.052204 160.015717,50.966698 
	C160.107697,50.731258 160.300919,50.692196 160.776245,50.741798 
z"/>
</svg>